:FULLY-SPECIFIED
:FORCE-ALL-JOINTS-BE-3DOF
:DEGREES
1529
root -4.72291 15.3391 19.7398 -173.438 -5.83623 161.646
lfemur -42.8514 16.836 -8.20348
ltibia 81.7215 -0 0
lfoot -16.4605 27.2704 -0.0204932
ltoes -15.3876 0 0
rfemur -34.4736 -7.33673 17.462
rtibia 59.2548 -0 0
rfoot -17.1973 -22.4224 -0.0157285
rtoes -29.5138 0 0
lowerback 16.9042 0.55237 4.41794
upperback -1.20749 1.88267 3.38453
thorax -10.8726 0.705414 0.709547
lowerneck -4.49747 6.1477 3.28959
upperneck 1.42307 8.23701 -7.31313
head 1.70479 4.0032 -2.63497
lclavicle 5.80451e-014 4.37326e-014 0
lhumerus 0.6557 -11.6764 79.1195
lradius 67.1998 -0 0
lwrist -18.4014 0 0
lhand -30.6912 67.8498 -0.289756
lfingers 7.12502 -0 0
lthumb -4.58189 -80.5806 2.88612
rclavicle 5.80451e-014 4.37326e-014 0
rhumerus -55.1101 31.9557 -90.2553
rradius 104.428 -0 0
rwrist -55.1181 0 0
rhand 6.66943 -30.6946 0.0810575
rfingers 7.12502 -0 0
rthumb 31.9595 -57.8914 0.083756
1530
root -4.68599 15.3471 19.8079 -172.665 -9.61316 163.79
lfemur -41.5414 17.3355 -6.82483
ltibia 81.024 -0 0
lfoot -16.7579 27.3951 -0.0159098
ltoes -15.1207 0 0
rfemur -34.0535 -7.86715 17.2069
rtibia 59.2214 -0 0
rfoot -17.1582 -22.7097 -0.0178072
rtoes -30.2158 0 0
lowerback 16.7155 0.55893 4.27788
upperback -1.21233 1.84299 3.43783
thorax -10.772 0.691725 0.861354
lowerneck -4.57139 5.87136 3.1158
upperneck 1.26797 7.84561 -7.05311
head 1.62277 3.80693 -2.53631
lclavicle 5.80451e-014 4.37326e-014 0
lhumerus -2.19131 -7.56613 78.787
lradius 63.7578 -0 0
lwrist -20.5205 0 0
lhand -31.0751 69.1511 -0.204392
lfingers 7.12502 -0 0
lthumb -4.87452 -87.6049 2.23628
rclavicle 5.80451e-014 4.37326e-014 0
rhumerus -56.0268 30.5682 -90.9467
rradius 104.338 -0 0
rwrist -56.2246 0 0
rhand 6.92537 -30.3082 0.0628205
rfingers 7.12502 -0 0
rthumb 32.2034 -57.4585 0.0652491
1531
root -4.64908 15.3551 19.876 -171.952 -13.9476 166.902
lfemur -40.3031 17.7416 -5.6301
ltibia 80.3022 -0 0
lfoot -17.0249 27.47 -0.0113453
ltoes -14.9775 0 0
rfemur -33.7127 -8.36673 16.9532
rtibia 59.3232 -0 0
rfoot -17.0993 -22.9447 -0.0176674
rtoes -30.7456 0 0
lowerback 16.5463 0.56019 4.11658
upperback -1.21506 1.79473 3.48356
thorax -10.6791 0.675285 1.01881
lowerneck -4.64048 5.59382 2.93393
upperneck 1.13411 7.45692 -6.79807
head 1.5498 3.61188 -2.43781
lclavicle 5.80451e-014 4.37326e-014 0
lhumerus -4.74753 -3.93945 78.3228
lradius 60.6394 -0 0
lwrist -22.3592 0 0
lhand -31.3956 70.1992 -0.127127
lfingers 7.12502 -0 0
lthumb -5.05477 -93.3635 1.6
rclavicle 5.80451e-014 4.37326e-014 0
rhumerus -56.8489 29.2976 -91.5797
rradius 104.308 -0 0
rwrist -57.2331 0 0
rhand 7.15236 -29.9475 0.0447058
rfingers 7.12502 -0 0
rthumb 32.4197 -57.0568 0.0467353
1532
root -4.61216 15.3632 19.9441 -171.46 -18.905 171.134
lfemur -39.1657 18.057 -4.65977
ltibia 79.5673 -0 0
lfoot -17.2599 27.4899 -0.00704751
ltoes -14.9732 0 0
rfemur -33.4595 -8.83014 16.7059
rtibia 59.5741 -0 0
rfoot -17.0177 -23.1226 -0.0148835
rtoes -31.0818 0 0
lowerback 16.3995 0.555322 3.93353
upperback -1.21559 1.7371 3.52128
thorax -10.5952 0.65584 1.18192
lowerneck -4.70342 5.31714 2.74479
upperneck 1.02472 7.07399 -6.55109
head 1.48736 3.41967 -2.34045
lclavicle 5.80451e-014 4.37326e-014 0
lhumerus -6.97632 -0.867518 77.7997
lradius 57.8971 -0 0
lwrist -23.8811 0 0
lhand -31.6459 70.9621 -0.0638599
lfingers 7.12502 -0 0
lthumb -5.14538 -97.6945 1.00317
rclavicle 5.80451e-014 4.37326e-014 0
rhumerus -57.5852 28.1618 -92.1651
rradius 104.352 -0 0
rwrist -58.1362 0 0
rhand 7.34792 -29.6185 0.0275952
rfingers 7.12502 -0 0
rthumb 32.6061 -56.6929 0.0290926
1533
root -4.57525 15.3712 20.0122 -171.437 -24.5257 176.715
lfemur -38.1579 18.2861 -3.95414
ltibia 78.8305 -0 0
lfoot -17.4612 27.4497 -0.00322026
ltoes -15.123 0 0
rfemur -33.3028 -9.25212 16.4702
rtibia 59.9885 -0 0
rfoot -16.9104 -23.2388 -0.00908872
rtoes -31.2028 0 0
lowerback 16.2779 0.54354 3.72819
upperback -1.21379 1.6693 3.55056
thorax -10.5217 0.633151 1.35071
lowerneck -4.7589 5.04342 2.54916
upperneck 0.943059 6.69986 -6.31526
head 1.4369 3.23192 -2.24525
lclavicle 5.80451e-014 4.37326e-014 0
lhumerus -8.82596 1.58405 77.2916
lradius 55.5834 -0 0
lwrist -25.0498 0 0
lhand -31.8195 71.408 -0.0199836
lfingers 7.12502 -0 0
lthumb -5.17232 -100.435 0.465098
rclavicle 5.80451e-014 4.37326e-014 0
rhumerus -58.2437 27.1785 -92.7125
rradius 104.482 -0 0
rwrist -58.9267 0 0
rhand 7.5096 -29.3274 0.0123928
rfingers 7.12502 -0 0
rthumb 32.7603 -56.3736 0.0132179
1534
root -4.53833 15.3792 20.0803 547.722 -30.793 544.022
lfemur -37.3075 18.4331 -3.55288
ltibia 78.1027 0 0
lfoot -17.6273 27.3442 0
ltoes -15.4423 0 0
rfemur -33.2513 -9.62745 16.2511
rtibia 60.5806 0 0
rfoot -16.7747 -23.2886 0
rtoes -31.0872 0 0
lowerback 16.1844 0.524106 3.50005
upperback -1.20955 1.59053 3.57097
thorax -10.46 0.606985 1.52519
lowerneck -4.80562 4.77477 2.3478
upperneck 0.892484 6.33753 -6.09375
head 1.39991 3.05021 -2.15324
lclavicle 5.80451e-014 4.37326e-014 0
lhumerus -10.234 3.35353 76.8702
lradius 53.7508 0 0
lwrist -25.8288 0 0
lhand -31.9097 71.5048 0
lfingers 7.12502 0 0
lthumb -5.16151 -101.422 0
rclavicle 5.80451e-014 4.37326e-014 0
rhumerus -58.8316 26.3651 -93.231
rradius 104.71 0 0
rwrist -59.5973 0 0
rhand 7.63495 -29.0801 0
rfingers 7.12502 0 0
rthumb 32.8799 -56.1055 0
1535
root -4.65266 15.3866 20.0946 -174.957 -35.8148 -165.831
lfemur -36.5721 18.5092 -3.44014
ltibia 77.3023 -0 0
lfoot -17.7398 27.1605 0.000427168
ltoes -15.9582 0 0
rfemur -33.3288 -9.9854 16.0412
rtibia 61.4557 -0 0
rfoot -16.6371 -23.2804 0.00272255
rtoes -30.7163 0 0
lowerback 16.1199 0.497154 3.23324
upperback -1.20065 1.49715 3.57823
thorax -10.408 0.576329 1.71062
lowerneck -4.84891 4.50079 2.13152
upperneck 0.866488 5.97242 -5.87912
head 1.37318 2.86749 -2.06046
lclavicle -3.99557e-014 -1.59028e-014 0
lhumerus -11.2274 4.51937 76.5424
lradius 52.3143 -0 0
lwrist -26.2209 0 0
lhand -31.9185 71.2212 -0.00522527
lfingers 7.12502 -0 0
lthumb -5.13781 -100.559 -0.350788
rclavicle -3.99557e-014 -1.59028e-014 0
rhumerus -59.4118 25.7254 -93.7574
rradius 105.064 -0 0
rwrist -60.1524 0 0
rhand 7.66136 -28.8517 -0.00742991
rfingers 7.12502 -0 0
rthumb 32.9149 -55.9171 -0.0282217
1536
root -4.767 15.3939 20.1089 -179.505 -37.413 -152.687
lfemur -35.8887 18.5276 -3.5597
ltibia 76.3506 -0 0
lfoot -17.7862 26.8945 -0.00365408
ltoes -16.674 0 0
rfemur -33.5442 -10.3566 15.8304
rtibia 62.6809 -0 0
rfoot -16.5223 -23.2267 -0.00912223
rtoes -30.101 0 0
lowerback 16.0818 0.463788 2.91573
upperback -1.18544 1.38721 3.56939
thorax -10.3625 0.540676 1.91119
lowerneck -4.89436 4.21063 1.89202
upperneck 0.855828 5.58906 -5.66191
head 1.35233 2.67616 -1.96256
lclavicle -3.99557e-014 -1.59028e-014 0
lhumerus -11.8935 5.22678 76.2812
lradius 51.1429 -0 0
lwrist -26.2719 0 0
lhand -31.8562 70.5705 -0.0328619
lfingers 7.12502 -0 0
lthumb -5.11695 -97.9661 -0.559103
rclavicle -3.99557e-014 -1.59028e-014 0
rhumerus -60.0322 25.242 -94.3174
rradius 105.554 -0 0
rwrist -60.6042 0 0
rhand 7.54174 -28.6148 -0.00833465
rfingers 7.12502 -0 0
rthumb 32.8281 -55.823 -0.0859255
1537
root -4.88133 15.4013 20.1232 175.728 -35.3024 -138.117
lfemur -35.2523 18.4943 -3.88967
ltibia 75.2632 -0 0
lfoot -17.7731 26.5542 -0.011432
ltoes -17.5695 0 0
rfemur -33.8842 -10.7377 15.6195
rtibia 64.2135 -0 0
rfoot -16.4246 -23.1286 -0.0331052
rtoes -29.264 0 0
lowerback 16.0676 0.424793 2.55268
upperback -1.16461 1.26245 3.54608
thorax -10.3231 0.500569 2.12531
lowerneck -4.94111 3.90572 1.63145
upperneck 0.85979 5.18913 -5.44231
head 1.33712 2.47701 -1.86002
lclavicle -3.99557e-014 -1.59028e-014 0
lhumerus -12.2573 5.51475 76.0968
lradius 50.2202 -0 0
lwrist -26.0101 0 0
lhand -31.7275 69.5878 -0.0794378
lfingers 7.12502 -0 0
lthumb -5.09926 -93.806 -0.633613
rclavicle -3.99557e-014 -1.59028e-014 0
rhumerus -60.6776 24.9003 -94.9031
rradius 106.16 -0 0
rwrist -60.9572 0 0
rhand 7.29689 -28.3722 -0.00280628
rfingers 7.12502 -0 0
rthumb 32.6364 -55.8092 -0.167937
1538
root -4.99566 15.4086 20.1375 172.616 -29.7564 -123.76
lfemur -34.6577 18.4146 -4.40774
ltibia 74.0559 -0 0
lfoot -17.7073 26.1476 -0.0219295
ltoes -18.6243 0 0
rfemur -34.3355 -11.1255 15.4092
rtibia 66.0103 -0 0
rfoot -16.3385 -22.9876 -0.0667677
rtoes -28.2281 0 0
lowerback 16.0748 0.38099 2.14929
upperback -1.13886 1.1246 3.50988
thorax -10.2891 0.456557 2.3514
lowerneck -4.98833 3.58748 1.35192
upperneck 0.877671 4.77429 -5.22045
head 1.3273 2.27083 -1.75331
lclavicle -3.99557e-014 -1.59028e-014 0
lhumerus -12.3462 5.42088 75.9914
lradius 49.5297 -0 0
lwrist -25.4638 0 0
lhand -31.5368 68.3083 -0.140578
lfingers 7.12502 -0 0
lthumb -5.07428 -88.24 -0.584348
rclavicle -3.99557e-014 -1.59028e-014 0
rhumerus -61.3325 24.6861 -95.5067
rradius 106.864 -0 0
rwrist -61.2158 0 0
rhand 6.94763 -28.1265 0.00891099
rfingers 7.12502 -0 0
rthumb 32.3569 -55.8615 -0.269493
1539
root -5.11 15.416 20.1518 172.268 -21.5487 -110.29
lfemur -34.0988 18.2929 -5.09131
ltibia 72.7441 -0 0
lfoot -17.5956 25.6828 -0.0340851
ltoes -19.8179 0 0
rfemur -34.8847 -11.5165 15.2001
rtibia 68.0285 -0 0
rfoot -16.2584 -22.8047 -0.107644
rtoes -27.016 0 0
lowerback 16.101 0.33321 1.71071
upperback -1.1089 0.975399 3.46242
thorax -10.2604 0.409187 2.58786
lowerneck -5.03521 3.25737 1.05553
upperneck 0.908783 4.34624 -4.9965
head 1.32264 2.0584 -1.64287
lclavicle -3.99557e-014 -1.59028e-014 0
lhumerus -12.19 4.98146 75.9612
lradius 49.0548 -0 0
lwrist -24.6614 0 0
lhand -31.2886 66.767 -0.211332
lfingers 7.12502 -0 0
lthumb -5.02417 -81.4298 -0.424013
rclavicle -3.99557e-014 -1.59028e-014 0
rhumerus -61.9816 24.5858 -96.1201
rradius 107.648 -0 0
rwrist -61.3845 0 0
rhand 6.51476 -27.8803 0.026386
rfingers 7.12502 -0 0
rthumb 32.0065 -55.9657 -0.386012
1540
root -5.22433 15.4234 20.166 175.026 -11.6803 -97.3685
lfemur -33.5696 18.1331 -5.91755
ltibia 71.3436 -0 0
lfoot -17.4447 25.1677 -0.046824
ltoes -21.1302 0 0
rfemur -35.5185 -11.9072 14.9925
rtibia 70.225 -0 0
rfoot -16.1786 -22.5813 -0.153285
rtoes -25.6506 0 0
lowerback 16.1437 0.282281 1.24213
upperback -1.07543 0.816595 3.40528
thorax -10.2363 0.359009 2.83311
lowerneck -5.08095 2.91683 0.744375
upperneck 0.952453 3.90664 -4.77062
head 1.32289 1.84052 -1.52918
lclavicle -3.99557e-014 -1.59028e-014 0
lhumerus -11.8201 4.23176 75.9979
lradius 48.779 -0 0
lwrist -23.6312 0 0
lhand -30.9876 64.9989 -0.286468
lfingers 7.12502 -0 0
lthumb -4.92717 -73.5369 -0.16961
rclavicle -3.99557e-014 -1.59028e-014 0
rhumerus -62.6091 24.5861 -96.7349
rradius 108.494 -0 0
rwrist -61.468 0 0
rhand 6.0191 -27.6365 0.0489757
rfingers 7.12502 -0 0
rthumb 31.6024 -56.1076 -0.512909
